<?xml version="1.0" encoding="utf-8"?>
<svg viewBox="0 0 500 500" xmlns="http://www.w3.org/2000/svg">
  <path d="M 175.96154491576948 225.32052108522026 C 170.0298401427912 205.5482926007219 191.366533875016 179.08423266197204 204.8076934814453 166.9871826171875 C 217.87108146565376 155.2301272122493 233.33951149041826 146.30038732841984 250.6410369873047 142.3076934814453 C 286.3420681174538 134.0689235909149 329.48281616873265 156.72112464756884 342.94873046875 190.38462829589844 C 344.179039884377 193.46028469610894 345.19232177734375 197.59602925063092 345.19232177734375 200.6410369873047 C 345.19232177734375 201.4546896726169 343.6764800898409 200.0433726079113 342.94873046875 199.6794891357422 C 341.19104217493265 198.8006240689538 338.89830930335535 198.46718731865013 337.17950439453125 197.43589782714844 C 332.8013548166927 194.8089914059092 327.6525419558227 192.48895123677318 323.0769348144531 189.74359130859375 C 308.530579678227 181.01579207710003 295.9287492403552 176.75489367087195 278.5256652832031 178.20513916015625 C 263.66752826782084 179.44330742037835 250.56559293852908 190.48829912990993 246.474365234375 204.8076934814453 C 244.8776754655912 210.3961456795623 244.5911758197261 217.70818365054154 249.35897827148438 221.7948760986328 C 263.1037452051189 233.57611825302286 286.46814379619644 223.36387798794402 302.24359130859375 222.4359130859375 C 339.0386179147218 220.27150581748754 377.100135732865 221.7948760986328 413.7820739746094 221.7948760986328" style="stroke: rgb(0, 0, 0); fill: rgb(216, 216, 216);"/>
  <path d="M 179.48718607073027 229.4871879047194 C 174.57138218151783 229.4871826171875 170.61940335755523 224.30553495053852 164.74359130859375 223.71795654296875 C 148.97658110759278 222.1412630291458 133.46022288637852 228.20513916015625 117.62821197509766 228.20513916015625 C 97.2521703561595 228.20513916015625 75.82507923123772 226.69811600999228 55.4487190246582 225.00001525878906 C 52.13371198819117 224.7237531647841 49.04109980009279 222.7564239501953 45.833335876464844 222.7564239501953" style="stroke: rgb(0, 0, 0); fill: rgb(216, 216, 216);"/>
</svg>